<?xml version="1.0" encoding="UTF-8" standalone="no"?>
<!-- Created with Inkscape (http://www.inkscape.org/) -->

<svg
   xmlns:dc="http://purl.org/dc/elements/1.1/"
   xmlns:cc="http://creativecommons.org/ns#"
   xmlns:rdf="http://www.w3.org/1999/02/22-rdf-syntax-ns#"
   xmlns:svg="http://www.w3.org/2000/svg"
   xmlns="http://www.w3.org/2000/svg"
   xmlns:sodipodi="http://sodipodi.sourceforge.net/DTD/sodipodi-0.dtd"
   xmlns:inkscape="http://www.inkscape.org/namespaces/inkscape"
   width="744.09448819"
   height="1052.3622047"
   id="svg2"
   version="1.1"
   inkscape:version="0.48.4 r9939"
   sodipodi:docname="New document 1">
  <defs
     id="defs4" />
  <sodipodi:namedview
     id="base"
     pagecolor="#ffffff"
     bordercolor="#666666"
     borderopacity="1.0"
     inkscape:pageopacity="0.0"
     inkscape:pageshadow="2"
     inkscape:zoom="0.35"
     inkscape:cx="375"
     inkscape:cy="517.09116"
     inkscape:document-units="px"
     inkscape:current-layer="layer1"
     showgrid="false"
     showguides="true"
     inkscape:guide-bbox="true"
     inkscape:window-width="1375"
     inkscape:window-height="876"
     inkscape:window-x="65"
     inkscape:window-y="24"
     inkscape:window-maximized="1" />
  <metadata
     id="metadata7">
    <rdf:RDF>
      <cc:Work
         rdf:about="">
        <dc:format>image/svg+xml</dc:format>
        <dc:type
           rdf:resource="http://purl.org/dc/dcmitype/StillImage" />
        <dc:title></dc:title>
      </cc:Work>
    </rdf:RDF>
  </metadata>
  <g
     inkscape:label="Layer 1"
     inkscape:groupmode="layer"
     id="layer1">
    <path
       sodipodi:type="arc"
       style="fill:#000000"
       id="path3005"
       sodipodi:cx="358.57144"
       sodipodi:cy="225.21933"
       sodipodi:rx="118.57143"
       sodipodi:ry="107.14286"
       d="m 477.14287,225.21933 a 118.57143,107.14286 0 1 1 -237.14285,0 118.57143,107.14286 0 1 1 237.14285,0 z"
       transform="translate(17.142857,31.428571)" />
    <path
       sodipodi:type="arc"
       style="fill:#e6e6e6"
       id="path3007"
       sodipodi:cx="330"
       sodipodi:cy="189.50504"
       sodipodi:rx="27.142857"
       sodipodi:ry="25.714285"
       d="m 357.14286,189.50504 a 27.142857,25.714285 0 1 1 -54.28572,0 27.142857,25.714285 0 1 1 54.28572,0 z"
       transform="translate(8.5714286,28.571429)" />
    <path
       style="fill:#000000;stroke:#000000;stroke-width:1px;stroke-linecap:butt;stroke-linejoin:miter;stroke-opacity:1"
       d="m 308.57143,383.79076 128.57143,2.85714 48.57143,-48.57143 0,48.57143 -40,54.28571 0,111.42858 -134.28572,0 0,-102.85715 -42.85714,-65.71428 2.85714,-45.71429 z"
       id="path3017"
       inkscape:connector-curvature="0" />
    <path
       style="fill:#000000;stroke:#000000;stroke-width:1px;stroke-linecap:butt;stroke-linejoin:miter;stroke-opacity:1"
       d="m 317.14286,572.36218 131.42857,2.85715 0,51.42857 -17.14286,-28.57143 -88.57143,-2.85714 -20,20 z"
       id="path3025"
       inkscape:connector-curvature="0" />
    <path
       transform="translate(78.571431,31.42858)"
       sodipodi:type="arc"
       style="fill:#e6e6e6"
       id="path3007-7"
       sodipodi:cx="330"
       sodipodi:cy="189.50504"
       sodipodi:rx="27.142857"
       sodipodi:ry="25.714285"
       d="m 357.14286,189.50504 a 27.142857,25.714285 0 1 1 -54.28572,0 27.142857,25.714285 0 1 1 54.28572,0 z" />
    <path
       style="fill:#000000;stroke:#000000;stroke-width:1px;stroke-linecap:butt;stroke-linejoin:miter;stroke-opacity:1"
       d="m 368.57143,623.79075 2.85714,120 2.85714,57.14286 -57.14285,2.85714 5.71428,-174.28571 z"
       id="path3045"
       inkscape:connector-curvature="0" />
    <path
       style="fill:#000000;stroke:#000000;stroke-width:1px;stroke-linecap:butt;stroke-linejoin:miter;stroke-opacity:1"
       d="m 394.28571,625.21932 -2.85714,120 -2.85714,57.1429 57.14285,2.8571 L 440,630.93361 z"
       id="path3045-7"
       inkscape:connector-curvature="0" />
    <path
       style="fill:#ffffff;stroke:#000000;stroke-width:1px;stroke-linecap:butt;stroke-linejoin:miter;stroke-opacity:1"
       d="m 317.14286,803.79075 14.28571,-34.28571 31.42857,2.85714 8.57143,25.71429 z"
       id="path3065"
       inkscape:connector-curvature="0" />
    <path
       style="fill:#ffffff;stroke:#000000;stroke-width:1px;stroke-linecap:butt;stroke-linejoin:miter;stroke-opacity:1"
       d="m 447.14285,806.64786 -14.28571,-34.2857 -31.4286,2.8572 -8.5714,25.7143 z"
       id="path3065-5"
       inkscape:connector-curvature="0" />
    <path
       style="fill:#000000;stroke:#000000;stroke-width:1px;stroke-linecap:butt;stroke-linejoin:miter;stroke-opacity:1"
       d="M 254.28572,386.6479 220,409.50504 160,366.6479 l -31.42857,20 L 200,438.07647 274.28572,412.36218 z"
       id="path3085"
       inkscape:connector-curvature="0" />
    <path
       style="fill:#000000;stroke:#000000;stroke-width:1px;stroke-linecap:butt;stroke-linejoin:miter;stroke-opacity:1"
       d="M 495.7143,390.93361 530,413.79075 l 60,-42.85714 31.4286,20 L 550,442.36218 475.7143,416.64789 z"
       id="path3085-1"
       inkscape:connector-curvature="0" />
  </g>
</svg>
